<?xml version="1.0" encoding="utf-8"?>
<!-- Generator: Adobe Illustrator 27.5.0, SVG Export Plug-In . SVG Version: 6.00 Build 0)  -->
<svg version="1.1" id="Layer_1" xmlns="http://www.w3.org/2000/svg" xmlns:xlink="http://www.w3.org/1999/xlink" x="0px" y="0px"
	 viewBox="0 0 312.389 236.73" style="enable-background:new 0 0 312.389 236.73;" xml:space="preserve">
<g>
	<g>
		<path style="fill:#FFFFFF;" d="M280.44,46.795c-15.147-14.336-42.674-31.299-63.86-34.5c-7.069-1.058-14.348-1.594-21.634-1.594
			c-15.781,0-31.304,2.427-46.143,7.216c-31.279,10.15-61.603,27.725-85.384,49.487c-27.013,24.719-44.647,53.847-50.996,84.228
			c-3.82,18.205-0.468,33.95,9.965,46.801c26.177,32.239,86.421,34.746,104.262,34.747h0.006c1.97,0,3.937-0.027,5.838-0.081
			c37.796-1.021,66.734-5.378,91.071-13.71c33.367-11.425,57.429-30.687,71.515-57.251c9.89-18.642,14.19-40.024,12.111-60.211
			C304.954,80.2,295.699,61.133,280.44,46.795z"/>
		<path style="fill:#F1F1F1;" d="M279.875,46.145c-15.146-14.336-42.673-31.298-63.859-34.5c-7.069-1.058-14.348-1.593-21.634-1.593
			c-15.781,0-31.305,2.427-46.143,7.215c-31.28,10.15-61.603,27.726-85.385,49.488C35.843,91.474,18.208,120.6,11.858,150.981
			c-3.82,18.206-0.467,33.95,9.966,46.8c26.176,32.24,86.421,34.748,104.262,34.749h0.006c1.97,0,3.937-0.028,5.838-0.083
			c37.796-1.02,66.734-5.377,91.071-13.71c33.366-11.424,57.429-30.686,71.514-57.25c9.89-18.642,14.191-40.024,12.112-60.211
			C304.39,79.551,295.135,60.482,279.875,46.145z"/>
		<path style="fill:#E2E2E2;" d="M279.312,45.494c-15.148-14.335-42.674-31.298-63.859-34.5c-7.07-1.057-14.349-1.593-21.635-1.593
			c-15.781,0-31.304,2.426-46.143,7.217C116.396,26.768,86.072,44.343,62.29,66.104c-27.012,24.719-44.646,53.847-50.996,84.228
			c-3.82,18.205-0.467,33.95,9.967,46.801c26.176,32.24,86.42,34.746,104.262,34.747h0.006c1.969,0,3.936-0.027,5.837-0.081
			c37.796-1.021,66.734-5.379,91.07-13.71c33.368-11.425,57.43-30.687,71.516-57.252c9.889-18.641,14.19-40.023,12.112-60.211
			C303.825,78.9,294.57,59.832,279.312,45.494z"/>
		<path style="fill:#D4D4D4;" d="M278.747,44.845c-15.147-14.336-42.674-31.299-63.861-34.501
			c-7.069-1.057-14.347-1.593-21.633-1.593c-15.782,0-31.305,2.427-46.143,7.216c-31.28,10.15-61.603,27.725-85.385,49.487
			c-27.012,24.719-44.646,53.847-50.996,84.227c-3.82,18.206-0.467,33.951,9.966,46.801c26.176,32.24,86.421,34.747,104.262,34.748
			h0.004c1.972,0,3.939-0.027,5.84-0.082c37.796-1.021,66.734-5.377,91.07-13.709c33.368-11.426,57.43-30.687,71.514-57.251
			c9.891-18.641,14.192-40.025,12.112-60.211C303.262,78.25,294.006,59.183,278.747,44.845z"/>
		<path style="fill:#C5C5C5;" d="M278.184,44.194c-15.148-14.336-42.675-31.298-63.861-34.499
			c-7.07-1.058-14.347-1.595-21.633-1.595c-15.782,0-31.304,2.428-46.144,7.218c-31.278,10.148-61.603,27.725-85.385,49.487
			c-27.012,24.718-44.646,53.846-50.995,84.226c-3.821,18.205-0.468,33.951,9.965,46.802
			c26.177,32.239,86.422,34.745,104.262,34.747c0.002,0,0.004,0,0.004,0c1.973,0,3.939-0.028,5.839-0.081
			c37.796-1.021,66.735-5.379,91.072-13.711c33.366-11.424,57.429-30.687,71.515-57.251c9.89-18.641,14.19-40.023,12.112-60.21
			C302.697,77.601,293.442,58.532,278.184,44.194z"/>
		<path style="fill:#B7B7B7;" d="M277.619,43.545c-15.147-14.336-42.675-31.298-63.861-34.5c-7.07-1.057-14.347-1.593-21.634-1.593
			c-15.781,0-31.303,2.427-46.143,7.216c-31.279,10.149-61.603,27.725-85.384,49.487C33.585,88.873,15.95,118.002,9.602,148.383
			c-3.821,18.204-0.467,33.949,9.965,46.8c26.177,32.239,86.421,34.746,104.262,34.748c0,0,0.004,0,0.006,0
			c1.971,0,3.938-0.028,5.838-0.081c37.795-1.021,66.735-5.379,91.071-13.711c33.366-11.424,57.429-30.686,71.515-57.251
			c9.89-18.641,14.19-40.024,12.112-60.21C302.132,76.951,292.878,57.883,277.619,43.545z"/>
		<path style="fill:#A8A8A8;" d="M277.055,42.895c-15.149-14.336-42.675-31.298-63.861-34.5c-7.07-1.057-14.347-1.594-21.634-1.594
			c-15.781,0-31.303,2.428-46.143,7.217c-31.279,10.15-61.603,27.725-85.385,49.487c-27.012,24.719-44.646,53.846-50.995,84.227
			c-3.821,18.206-0.468,33.951,9.965,46.8c26.177,32.241,86.421,34.748,104.262,34.749h0.006c1.971,0,3.937-0.028,5.837-0.082
			c37.796-1.02,66.736-5.378,91.072-13.71c33.366-11.425,57.429-30.686,71.515-57.251c9.89-18.641,14.19-40.024,12.111-60.211
			C301.567,76.3,292.313,57.232,277.055,42.895z"/>
		<path style="fill:#9A9A9A;" d="M276.49,42.245c-15.149-14.336-42.675-31.3-63.861-34.501c-7.069-1.058-14.348-1.593-21.634-1.593
			c-15.781,0-31.303,2.426-46.142,7.216c-31.28,10.15-61.604,27.725-85.386,49.486C32.455,87.573,14.821,116.7,8.473,147.081
			c-3.821,18.206-0.468,33.952,9.965,46.801c26.177,32.241,86.421,34.747,104.262,34.748c0,0,0.004,0,0.006,0
			c1.971,0,3.937-0.027,5.838-0.082c37.796-1.021,66.734-5.377,91.071-13.709c33.366-11.425,57.429-30.687,71.515-57.251
			c9.89-18.642,14.191-40.025,12.111-60.212C301.003,75.649,291.748,56.583,276.49,42.245z"/>
		<path style="fill:#8B8B8B;" d="M275.924,41.596c-15.146-14.336-42.673-31.3-63.859-34.502c-7.069-1.057-14.348-1.592-21.634-1.592
			c-15.781,0-31.304,2.426-46.143,7.215c-31.279,10.151-61.603,27.725-85.384,49.487c-27.013,24.72-44.647,53.847-50.996,84.227
			c-3.821,18.206-0.468,33.951,9.965,46.8c26.177,32.241,86.421,34.747,104.262,34.748h0.006c1.97,0,3.937-0.026,5.838-0.082
			c37.796-1.021,66.734-5.376,91.07-13.708c33.368-11.427,57.43-30.688,71.516-57.251c9.889-18.642,14.19-40.026,12.111-60.212
			C300.439,75,291.184,55.933,275.924,41.596z"/>
		<path style="fill:#7D7D7D;" d="M275.36,40.944c-15.148-14.336-42.674-31.299-63.86-34.5c-7.069-1.058-14.348-1.594-21.635-1.594
			c-15.78,0-31.303,2.427-46.142,7.217c-31.279,10.149-61.603,27.725-85.385,49.487C31.326,86.273,13.691,115.4,7.343,145.781
			c-3.821,18.206-0.467,33.952,9.966,46.801c26.177,32.24,86.421,34.747,104.262,34.747c0,0,0.003,0,0.006,0
			c1.97,0,3.936-0.027,5.838-0.081c37.796-1.021,66.733-5.377,91.071-13.709c33.367-11.426,57.428-30.688,71.515-57.251
			c9.89-18.641,14.19-40.025,12.111-60.212C299.874,74.351,290.619,55.282,275.36,40.944z"/>
		<path style="fill:#6E6E6E;" d="M274.796,40.295c-15.147-14.335-42.674-31.298-63.86-34.501
			c-7.069-1.057-14.348-1.593-21.634-1.593c-15.781,0-31.304,2.427-46.143,7.216c-31.279,10.15-61.602,27.725-85.385,49.487
			c-27.012,24.72-44.646,53.847-50.996,84.228c-3.82,18.205-0.468,33.95,9.966,46.8c26.177,32.24,86.421,34.748,104.262,34.748
			h0.006c1.97,0,3.937-0.027,5.837-0.081c37.797-1.021,66.735-5.378,91.071-13.71c33.368-11.425,57.43-30.687,71.516-57.251
			c9.889-18.642,14.19-40.024,12.111-60.211C299.31,73.7,290.055,54.633,274.796,40.295z"/>
		<path style="fill:#606060;" d="M274.232,39.645c-15.147-14.336-42.674-31.298-63.86-34.5c-7.07-1.058-14.348-1.594-21.634-1.594
			c-15.781,0-31.304,2.428-46.143,7.217C111.315,20.917,80.992,38.492,57.21,60.255c-27.012,24.719-44.646,53.846-50.996,84.227
			c-3.82,18.206-0.467,33.951,9.966,46.801c26.177,32.24,86.421,34.747,104.262,34.748h0.005c1.971,0,3.938-0.028,5.839-0.082
			c37.796-1.021,66.734-5.378,91.07-13.71c33.368-11.425,57.43-30.686,71.515-57.251c9.89-18.641,14.191-40.024,12.112-60.211
			C298.745,73.05,289.49,53.982,274.232,39.645z"/>
	</g>
	<path style="fill:#FFFFFF;" d="M274.232,39.645c-15.147-14.336-42.674-31.298-63.86-34.5c-7.07-1.058-14.348-1.594-21.634-1.594
		c-15.781,0-31.304,2.428-46.143,7.217C111.315,20.917,80.992,38.492,57.21,60.255c-27.012,24.719-44.646,53.846-50.996,84.227
		c-3.82,18.206-0.467,33.951,9.966,46.801c26.177,32.24,86.421,34.747,104.262,34.748h0.005c1.971,0,3.938-0.028,5.839-0.082
		c37.796-1.021,66.734-5.378,91.07-13.71c33.368-11.425,57.43-30.686,71.515-57.251c9.89-18.641,14.191-40.024,12.112-60.211
		C298.745,73.05,289.49,53.982,274.232,39.645z"/>
	<g>
		<g>
			<path style="fill:#C96E33;" d="M270.898,43.168c-14.523-13.745-41.147-30.189-61.245-33.227
				c-21.987-3.289-44.881-1.235-65.562,5.44C85.42,34.419,24.188,82.182,10.961,145.479c-13.316,63.461,70.31,76.888,115.193,75.622
				c57.935-1.565,128.271-11.508,158.432-68.386C303.44,117.174,301.152,71.595,270.898,43.168z"/>
			<path style="opacity:0.5;fill:#EA973D;" d="M228.493,50.343c-11.405-10.824-32.463-23.774-48.28-26.146
				c-17.303-2.632-35.407-1.027-51.654,4.249C82.318,43.438,34.057,81.095,23.628,130.962c-10.49,50.046,55.415,60.633,90.78,59.655
				c45.699-1.266,101.075-9.082,124.856-53.932C254.146,108.673,252.275,72.779,228.493,50.343z"/>
			<path style="opacity:0.5;fill:#E47639;" d="M263.816,50.986c-9.352-4.384-19.784-8.066-30.637-11.238
				c-0.199-4.49-0.24-8.938-0.549-13.478c-0.165-2.727-4.159,0.081-4.25,1.887c-0.167,3.295-0.365,6.697-0.542,9.996
				c-12.18-3.299-25.034-5.621-38.026-7.096c1.284-3.162,2.302-6.386,3.709-9.569c1.082-2.599-2.217-1.688-3.056-0.186
				c-1.629,2.975-2.957,6.191-4.405,9.289c-12.269-1.214-24.541-1.336-36.528-0.651c0.602-0.756,1.143-1.606,1.755-2.386
				c0.994-1.182-0.373-1.657-1.258-0.911c-1.19,1.014-2.164,2.374-3.315,3.44c-9.094,0.684-18.061,1.764-26.543,3.672
				c0.302-0.933-0.079-1.848-1.233-0.976c-0.805,0.631-1.563,1.391-2.383,2.052c-5.028,1.266-10.039,2.57-14.706,4.293
				c-0.99,0.394-2.121,3.05-0.369,2.51c3.213-0.994,6.512-1.534,9.736-2.322c-6.326,5.452-12.548,11.218-18.403,17.472
				c-5.184-0.167-10.476-0.425-15.696-0.394c-1.213,0-3.301,2.58-1.431,2.787c4.47,0.478,8.666,1.316,13.072,1.889
				c-8.979,10.221-17.002,21.41-23.422,33.342c-8.604-0.996-17.324-1.741-26.167-2.035c-0.933-0.051-2.426,1.908-1.13,2.098
				c8.654,1.034,16.633,2.944,24.83,4.498c-4.706,9.603-8.479,19.597-10.773,29.984c-8.572-1.597-17.155-2.832-25.61-3.211
				c-1.665-0.086-4.289,3.449-1.943,3.688c9.078,0.849,17.819,2.55,26.427,4.622c-1.266,7.3-2.086,14.702-1.85,22.282
				c0.084,3.38,4.947-0.229,5.184-2.263c0.677-6.314,1.694-12.46,2.944-18.422c12.712,3.525,25.028,8.044,37.036,13.395
				c-1.254,10.225-1.989,20.143-1.671,29.124c0.083,3.64,5.225-0.166,5.445-2.334c0.954-7.775,2.085-15.552,3.315-23.432
				c19.432,9.21,38.248,19.906,57.044,30.338c1.608,0.901,5.248-2.696,3.62-3.984c-1.258-0.951-2.663-1.872-4.011-2.838
				c1.666-0.207,3.968-2.241,4.081-3.795c0.885-12.771,1.951-25.495,3.444-38.194c11.577,5.701,23.105,11.735,34.844,18.455
				c1.817,1.057,5.809-3.037,4.013-4.365c-12.194-8.814-24.693-16.515-37.53-23.153c1.989-15.425,4.676-30.666,8.15-45.741
				c16.712,5.063,33.34,11.229,49.931,18.248c-0.779,17.519-1.567,35.083-1.473,52.41c0.04,3.448,5.091-0.238,5.369-2.334
				c2.086-15.656,3.35-31.167,4.19-46.603c5.101,2.251,10.149,4.063,15.281,6.552c2.126,1.008,6.137-3.285,3.689-4.801
				c-6.021-3.752-12.275-7.237-18.516-10.472c0.633-15.175,0.457-30.365-0.064-45.697c9.562,2.485,18.879,5.1,27.795,7.897
				C262.75,54.832,265.673,51.835,263.816,50.986z M115.882,38.192c8.582-1.722,17.343-2.904,26.231-3.338
				c-6.72,7.145-13.024,15.063-18.405,24.218c-8.758-1.057-17.583-1.741-26.366-2.167C102.963,50.407,109.181,44.184,115.882,38.192
				z M93.109,61.622c9.136,1.245,18.439,2.261,27.261,3.901c-6.006,11.238-11.305,23.307-15.398,35.873
				c-10.905-2.698-22.007-4.585-33.317-6.12C77.479,83.375,84.643,72.207,93.109,61.622z M95.22,141.291
				c-11.968-4.656-24.223-8.421-36.581-11.094c2.562-10.555,6.201-20.488,10.45-30.066c11.405,2.395,22.594,5.348,33.414,8.739
				C99.314,119.715,96.906,130.663,95.22,141.291z M156.491,174.57c0,0.27,0.216,0.239,0.236,0.425
				c-16.173-11.83-34.514-22.301-53.964-30.608c1.971-11.132,4.397-22.215,7.37-33.175c16.085,5.403,31.935,11.498,47.464,18.879
				C156.034,145.126,155.559,160.097,156.491,174.57z M158.68,120.969c-14.942-7.217-30.421-12.979-46.314-17.398
				c3.774-12.671,8.48-24.923,14.143-36.724c14.13,2.758,28.055,6.099,41.729,10.037C164.1,91.336,160.74,106.089,158.68,120.969z
				 M170.738,68.053c-13.358-3.526-27.02-6.159-40.811-8.056c4.621-8.804,10.015-17.159,15.977-25.185
				c12.298-0.363,24.811,0.228,37.314,1.741C178.583,46.684,174.312,57.134,170.738,68.053z M225.259,88.142
				c-15.52-7.483-31.61-13.476-48.129-18.202c2.823-11.055,6.381-21.96,10.339-32.764c13.552,1.826,26.977,4.479,40.011,7.691
				C226.765,59.279,225.956,73.65,225.259,88.142z"/>
		</g>
		<g>
			<path style="fill:#FFFFFF;" d="M96.525,122.48c-0.478-0.651-0.79-1.366-0.809-2.114c-0.957-4.124-7.592,1.578-7.652,4.17
				c-0.042,0.496-0.042,0.951-0.042,1.451c-0.039,0.695,0.32,1.813,1.171,1.989c0.36,0.062,0.735,0.127,1.098,0.228
				C92.676,128.715,98.1,125.466,96.525,122.48z"/>
			<path style="fill:#FFFFFF;" d="M92.511,97.62c-2.739,0-6.748,5.941-3.078,5.941C92.158,103.562,96.171,97.62,92.511,97.62z"/>
			<path style="fill:#FFFFFF;" d="M114.491,91.609c-4.18,2.798-14.764,18.597-2.882,18.597c6.438,0,16.432-7.495,16.547-15.094
				C128.319,87.418,118.566,88.911,114.491,91.609z"/>
			<path style="fill:#FFFFFF;" d="M160.625,92.458l-0.28-0.271c-4.567-4.678-12.574,2.479-14.628,6.391
				c-0.072,0.203-0.197,0.369-0.288,0.599C136.563,116.242,171.017,103.177,160.625,92.458z"/>
			<path style="fill:#FFFFFF;" d="M113.65,129.678c-0.157,1.4-0.072,2.262,0.996,3.192c2.384,2.034,5.724-1.038,6.893-3.047
				c0.778-1.36,1.235-2.459,1.061-4.043C122.06,119.891,113.909,126.048,113.65,129.678z"/>
			<path style="fill:#FFFFFF;" d="M137.453,116.335c-3.34,0-8.283,7.216-3.774,7.216
				C136.998,123.551,141.943,116.323,137.453,116.335z"/>
			<path style="fill:#FFFFFF;" d="M141.051,84.878c-2.838,0-7.09,6.17-3.213,6.17C140.638,91.048,144.887,84.878,141.051,84.878z"/>
			<path style="fill:#FFFFFF;" d="M59.554,105.055c0.063-1.771-0.697-2.48-1.828-2.632c-3.12-0.968-9.181,3.638-8.999,7.316
				c0.022,0.313,0.055,0.561,0.075,0.923c0,0.145,0.143,0.104,0.197,0.252c0.021,0.246,0.042,0.474,0.121,0.745
				c0.139,0.413,0.499,0.373,0.717,0.642c0.393,0.415,0.631,0.997,1.193,1.046c2.021,0.375,4.811-1.563,6.593-3.607
				c0.197-0.227,0.218-0.403,0.415-0.621c0.449-0.675,0.925-1.316,1.078-1.813c0.043-0.197,0-0.415,0.024-0.582
				c0.04-0.176,0.195-0.314,0.218-0.466C59.51,106.476,59.596,106.409,59.554,105.055z"/>
			<path style="fill:#FFFFFF;" d="M92.914,73.984c-5.482-5.932-20.091,6.488-16.433,12.947c0.063,0.073,0.063,0.135,0.137,0.197
				c0.861,1.553,1.863,2.673,3.856,2.673h0.177C86.329,89.844,98.817,80.274,92.914,73.984z"/>
			<path style="fill:#FFFFFF;" d="M181.685,48.354c-5.287,0-13.076,11.382-5.96,11.382
				C180.969,59.735,188.755,48.344,181.685,48.354z"/>
			<path style="fill:#FFFFFF;" d="M238.386,72.542c-1.546,0.01-2.895,0.34-4.146,1.255c-7.412,5.399-0.455,11.861,4.551,4.902
				c0.892-1.244,1.583-2.52,1.451-4.064C240.197,73.523,239.599,72.542,238.386,72.542z"/>
			<path style="fill:#FFFFFF;" d="M216.808,113.298c0.063,0.228,0.168,0.474,0.303,0.767c1.068,2.882,5.123-0.892,5.547-2.468
				c0.116-0.354,0.217-0.703,0.332-1.018C224.265,106.03,215.163,109.118,216.808,113.298z"/>
			<path style="fill:#FFFFFF;" d="M209.324,88.487c-0.278-0.052-0.521-0.139-0.758-0.197c-2.446-0.675-4.073,3.755-1.749,3.264
				l1.056-0.194C208.566,91.192,210.911,88.893,209.324,88.487z"/>
			<path style="fill:#FFFFFF;" d="M219.95,44.994c-0.339,0.061-0.651,0.197-0.972,0.299c-1.735,0.612-5.228,4.593-2.427,6.004
				c0.216,0.114,0.454,0.248,0.691,0.342C221.943,54.139,226.867,42.58,219.95,44.994z"/>
			<path style="fill:#FFFFFF;" d="M134.18,49.493c-0.283-1.555-1.888-0.922-3.119,0c-3.358,0.914-4.861,7.154-0.373,5.328
				c0.237-0.121,0.546-0.228,0.83-0.351c1.572-0.652,3.181-2.489,2.838-4.314L134.18,49.493z"/>
			<path style="fill:#FFFFFF;" d="M59.141,146.077c-0.864-3.162-5.728,0.996-6.089,2.667c-0.115,0.643-0.271,1.336-0.395,1.989
				c-1.129,5.135,8.17,1.628,6.938-2.995C59.419,147.18,59.273,146.64,59.141,146.077z"/>
			<path style="fill:#FFFFFF;" d="M132.292,72.283c-0.238-0.044-0.559-0.076-0.851-0.127c-1.907-0.643-4.001,1.504-4.154,3.34
				c-0.064,0.992-0.258,1.802,0.631,2.477C131.951,80.907,135.788,72.076,132.292,72.283z"/>
			<path style="fill:#FFFFFF;" d="M128.021,43.19c-0.318,0.248-0.673,0.478-0.991,0.726c-5.105,3.668-0.326,8.086,3.096,3.329
				c0.238-0.343,0.478-0.686,0.739-1.048C132.665,43.668,130.8,41.188,128.021,43.19z"/>
			<path style="fill:#FFFFFF;" d="M61.023,114.985c-1.883,0-4.727,4.138-2.146,4.138C60.765,119.123,63.608,114.985,61.023,114.985z
				"/>
			<path style="fill:#FFFFFF;" d="M41.137,126.247c-0.142-0.157-0.236-0.26-0.42-0.385c-1.328-1.181-3.157-0.354-4.449,0.788
				c-2.306,1.254-4.791,3.959-3.062,6.271c0.26,0.405,0.654,0.592,1.069,0.851c1.214,0.758,3.163-0.32,4.501-1.752
				C41.076,130.445,43.12,127.977,41.137,126.247z"/>
			<path style="fill:#FFFFFF;" d="M178.212,18.579c-0.303,0.061-0.583,0.121-0.903,0.162c-2.476,0.354-6.985,5.911-2.734,6.699
				c0.278,0.04,0.518,0.093,0.754,0.147C179.52,26.352,183.396,17.728,178.212,18.579z"/>
			<path style="fill:#FFFFFF;" d="M200.738,48.268c3.38,0.157,2.72,0.79,0.479-0.466c-5.09-2.868-16.175,6.875-13.135,12.235
				c0.973,1.794,2.188,3.721,4.635,3.6C199.189,63.321,210.872,48.779,200.738,48.268z"/>
			<path style="fill:#FFFFFF;" d="M249.936,50.104c-0.256-0.318-0.477-0.643-0.717-1.004c-1.907-2.892-9.838,3.793-5.805,6.363
				c0.362,0.188,0.695,0.417,1.014,0.643C247.094,57.726,251.561,52.604,249.936,50.104z"/>
			<path style="fill:#FFFFFF;" d="M211.884,22.536c-0.775-2.455-3.535-1.048-5.379,0.52c-3.245,2.415-4.482,8.002-0.363,6.833
				c0.303-0.075,0.561-0.157,0.915-0.238c2.4-0.707,5.958-3.465,4.984-6.451C212.021,22.972,211.925,22.745,211.884,22.536z"/>
			<path style="fill:#FFFFFF;" d="M263.525,68.549c0.076,0.208,0.116,0.436,0.218,0.693c0.872,2.749,4.968-0.879,5.341-2.332
				l0.195-0.9C270.318,61.769,262.272,64.673,263.525,68.549z"/>
			<path style="fill:#FFFFFF;" d="M198.637,111.472c-0.324,0.157-0.674,0.351-0.978,0.521c-1.151,0.599-3.491,2.65-2.184,4.083
				c0.177,0.167,0.277,0.345,0.475,0.54C199.725,120.802,204.431,108.383,198.637,111.472z"/>
		</g>
	</g>
</g>
</svg>
